<svg height="464pt" viewBox="0 0 464 464" width="464pt" xmlns="http://www.w3.org/2000/svg"><g fill="#ad6327"><path d="m232 170.945312c-33.71875 0-61.054688 27.335938-61.054688 61.054688s27.335938 61.054688 61.054688 61.054688 61.054688-27.335938 61.054688-61.054688-27.335938-61.054688-61.054688-61.054688zm0 85.054688c-13.253906 0-24-10.746094-24-24s10.746094-24 24-24 24 10.746094 24 24-10.746094 24-24 24zm0 0"/><path d="m165.015625 321.601562-45.601563 45.597657c27.382813 22.855469 61.085938 36.8125 96.609376 40v-64.472657c-18.507813-2.644531-36.050782-9.910156-51.007813-21.125zm0 0"/><path d="m121.273438 248h-64.472657c3.1875 35.523438 17.144531 69.226562 40 96.609375l45.597657-45.601563c-11.214844-14.957031-18.480469-32.5-21.125-51.007812zm0 0"/><path d="m216 121.273438v-64.472657c-35.523438 3.1875-69.226562 17.144531-96.609375 40l45.601563 45.597657c14.957031-11.214844 32.5-18.480469 51.007812-21.125zm0 0"/><path d="m298.984375 142.398438 45.601563-45.597657c-27.375-22.851562-61.070313-36.808593-96.585938-40v64.511719c18.496094 2.636719 36.03125 9.890625 50.984375 21.085938zm0 0"/><path d="m142.398438 165.015625-45.597657-45.601563c-22.851562 27.375-36.808593 61.070313-40 96.585938h64.511719c2.636719-18.496094 9.890625-36.03125 21.085938-50.984375zm0 0"/><path d="m342.726562 216h64.511719c-3.1875-35.523438-17.140625-69.226562-40-96.609375l-45.597656 45.601563c11.203125 14.960937 18.453125 32.503906 21.085937 51.007812zm0 0"/><path d="m321.601562 298.984375 45.597657 45.601563c22.855469-27.382813 36.8125-61.085938 40-96.609376h-64.472657c-2.644531 18.507813-9.910156 36.050782-21.125 51.007813zm0 0"/><path d="m248 342.726562v64.511719c35.523438-3.1875 69.226562-17.140625 96.609375-40l-45.601563-45.597656c-14.960937 11.203125-32.503906 18.453125-51.007812 21.085937zm0 0"/><path d="m248 56.800781v-40.800781c0-8.835938-7.164062-16-16-16s-16 7.164062-16 16v40.800781c5.273438-.480469 10.601562-.800781 16-.800781s10.726562.28125 16 .800781zm0 0"/></g><path d="m232 120c5.355469.042969 10.703125.464844 16 1.273438v-64.472657c-5.273438-.480469-10.601562-.800781-16-.800781s-10.726562.28125-16 .800781v64.511719c5.296875-.820312 10.640625-1.257812 16-1.3125zm0 0" fill="#66342e"/><path d="m232 176c5.417969.003906 10.808594.796875 16 2.351562v-57.078124c-10.597656-1.699219-21.402344-1.699219-32 0v57.078124c5.191406-1.554687 10.582031-2.347656 16-2.351562zm0 0" fill="#ad6327"/><path d="m216 407.238281v40.761719c0 8.835938 7.164062 16 16 16s16-7.164062 16-16v-40.761719c-5.273438.480469-10.601562.761719-16 .761719s-10.726562-.28125-16-.761719zm0 0" fill="#ad6327"/><path d="m232 344c-5.355469-.042969-10.703125-.464844-16-1.273438v64.511719c5.273438.480469 10.601562.761719 16 .761719s10.726562-.28125 16-.761719v-64.511719c-5.296875.808594-10.644531 1.230469-16 1.273438zm0 0" fill="#66342e"/><path d="m232 288c-5.417969-.003906-10.808594-.796875-16-2.351562v57.078124c10.597656 1.699219 21.402344 1.699219 32 0v-57.078124c-5.191406 1.554687-10.582031 2.347656-16 2.351562zm0 0" fill="#ad6327"/><path d="m448 216h-40.761719c.480469 5.273438.761719 10.601562.761719 16s-.28125 10.726562-.761719 16h40.761719c8.835938 0 16-7.164062 16-16s-7.164062-16-16-16zm0 0" fill="#ad6327"/><path d="m407.238281 216h-64.511719c1.699219 10.597656 1.699219 21.402344 0 32h64.511719c.480469-5.273438.761719-10.601562.761719-16s-.28125-10.726562-.761719-16zm0 0" fill="#66342e"/><path d="m288 232c-.003906 5.417969-.796875 10.808594-2.351562 16h57.078124c1.699219-10.597656 1.699219-21.402344 0-32h-57.078124c1.554687 5.191406 2.347656 10.582031 2.351562 16zm0 0" fill="#ad6327"/><path d="m56.800781 216h-40.800781c-8.835938 0-16 7.164062-16 16s7.164062 16 16 16h40.800781c-.480469-5.273438-.800781-10.601562-.800781-16s.28125-10.726562.800781-16zm0 0" fill="#ad6327"/><path d="m120 232c.042969-5.355469.464844-10.703125 1.273438-16h-64.472657c-.480469 5.273438-.800781 10.601562-.800781 16s.28125 10.726562.800781 16h64.511719c-.820312-5.296875-1.257812-10.640625-1.3125-16zm0 0" fill="#66342e"/><path d="m178.351562 248c-3.136718-10.4375-3.136718-21.5625 0-32h-57.078124c-1.699219 10.597656-1.699219 21.402344 0 32zm0 0" fill="#ad6327"/><path d="m344.609375 367.238281 40.765625 40.761719c6.277344 6.0625 16.257812 5.976562 22.429688-.195312 6.171874-6.171876 6.257812-16.152344.195312-22.429688l-40.761719-40.800781c-6.839843 8.226562-14.417969 15.8125-22.628906 22.664062zm0 0" fill="#ad6327"/><path d="m298.984375 321.601562 45.601563 45.597657c8.210937-6.84375 15.785156-14.417969 22.628906-22.632813l-45.597656-45.597656c-6.425782 8.585938-14.046876 16.207031-22.632813 22.632812zm0 0" fill="#66342e"/><path d="m258.640625 281.265625 40.34375 40.335937c8.578125-6.421874 16.195313-14.039062 22.617187-22.617187l-40.335937-40.34375c-5.191406 9.574219-13.050781 17.433594-22.625 22.625zm0 0" fill="#ad6327"/><path d="m56.976562 79.601562c-6.769531-6.257812-7.203124-16.808593-.976562-23.601562-6.246094 6.246094-6.246094 16.375 0 22.625l40.800781 40.800781zm0 0" fill="#ad6327"/><path d="m56.976562 79.601562 39.824219 39.789063c6.832031-8.195313 14.394531-15.757813 22.589844-22.589844l-40.796875-40.800781c-6.246094-6.226562-16.347656-6.226562-22.59375 0-6.226562 6.792969-5.792969 17.34375.976562 23.601562zm0 0" fill="#ad6327"/><path d="m96.800781 119.390625 45.597657 45.601563c6.425781-8.570313 14.039062-16.179688 22.617187-22.59375l-45.601563-45.597657c-8.203124 6.832031-15.773437 14.394531-22.613281 22.589844zm0 0" fill="#66342e"/><path d="m182.734375 205.359375c5.191406-9.574219 13.050781-17.433594 22.625-22.625l-40.34375-40.335937c-8.578125 6.421874-16.195313 14.039062-22.617187 22.617187l37.480468 37.480469zm0 0" fill="#ad6327"/><path d="m96.800781 344.609375-40.800781 40.796875c-5.804688 6.316406-5.597656 16.089844.472656 22.152344 6.074219 6.058594 15.84375 6.253906 22.152344.441406l40.800781-40.761719c-8.210937-6.84375-15.785156-14.417969-22.625-22.628906zm0 0" fill="#ad6327"/><path d="m142.398438 298.984375-45.597657 45.601563c6.84375 8.210937 14.417969 15.785156 22.632813 22.628906l45.597656-45.597656c-8.585938-6.425782-16.207031-14.046876-22.632812-22.632813zm0 0" fill="#66342e"/><path d="m182.734375 258.640625-40.335937 40.34375c6.421874 8.578125 14.039062 16.195313 22.617187 22.617187l40.34375-40.34375c-9.574219-5.191406-17.433594-13.046874-22.625-22.617187zm0 0" fill="#ad6327"/><path d="m367.238281 119.390625 40.761719-40.765625c4.160156-4.019531 5.828125-9.96875 4.363281-15.5625-1.464843-5.59375-5.832031-9.960938-11.425781-11.425781-5.59375-1.464844-11.542969.203125-15.5625 4.363281l-40.800781 40.800781c8.222656 6.828125 15.808593 14.390625 22.664062 22.589844zm0 0" fill="#ad6327"/><path d="m321.601562 165.015625 45.597657-45.601563c-6.832031-8.203124-14.394531-15.773437-22.589844-22.613281l-45.601563 45.597657c8.570313 6.425781 16.179688 14.039062 22.59375 22.617187zm0 0" fill="#66342e"/><path d="m281.265625 205.359375 40.335937-40.34375c-6.421874-8.578125-14.039062-16.195313-22.617187-22.617187l-40.34375 40.335937c9.574219 5.191406 17.433594 13.050781 22.625 22.625zm0 0" fill="#ad6327"/><path d="m168 88h16v16h-16zm0 0" fill="#ffd782"/><path d="m272 88h16v16h-16zm0 0" fill="#ffd782"/><path d="m168 360h16v16h-16zm0 0" fill="#ffd782"/><path d="m272 360h16v16h-16zm0 0" fill="#ffd782"/><path d="m360 176h16v16h-16zm0 0" fill="#ffd782"/><path d="m360 272h16v16h-16zm0 0" fill="#ffd782"/><path d="m88 176h16v16h-16zm0 0" fill="#ffd782"/><path d="m88 272h16v16h-16zm0 0" fill="#ffd782"/></svg>